PathFileType	4	(X/Y/Z)	/Users/niels/Desktop/University/Third Semester/Perception and Action/Exam/Gymnastics Motion Tracking/Code for Gym Tracking/Analyzed Data/Webcam_Backflip/id1_5_trajectory_Sports2D/id1_5_trajectory_Sports2D_px_person00.trc
DataRate	CameraRate	NumFrames	NumMarkers	Units	OrigDataRate	OrigDataStartFrame	OrigNumFrames
29.87551867219917	29.87551867219917	8	22	m	29.87551867219917	0	241
Frame#	Time	Hip			RHip			RKnee			RAnkle			RBigToe			RSmallToe			RHeel			LHip			LKnee			LAnkle			LBigToe			LSmallToe			LHeel			Neck			Head			Nose			RShoulder			RElbow			RWrist			LShoulder			LElbow			LWrist		
		X1	Y1	Z1	X2	Y2	Z2	X3	Y3	Z3	X4	Y4	Z4	X5	Y5	Z5	X6	Y6	Z6	X7	Y7	Z7	X8	Y8	Z8	X9	Y9	Z9	X10	Y10	Z10	X11	Y11	Z11	X12	Y12	Z12	X13	Y13	Z13	X14	Y14	Z14	X15	Y15	Z15	X16	Y16	Z16	X17	Y17	Z17	X18	Y18	Z18	X19	Y19	Z19	X20	Y20	Z20	X21	Y21	Z21	X22	Y22	Z22
0	0.0	0.9254846128966947	-0.5999150694609919	0.0	0.9209701406928673	-0.5968970556283447	0.0	0.9209691388513913	-0.7007668907324451	0.0	0.9059160890894129	-0.8076217234001016	0.0	0.9465464550200232	-0.8256868231384173	0.0	0.9360124978593818	-0.8302042228338485	0.0	0.8983865133878248	-0.8241732271003008	0.0	0.9330012236486894	-0.5968968172322687	0.0	0.9254800434070529	-0.6992578855443503	0.0	0.9104324210499645	-0.8031072697357265	0.0	0.9540687427534241	-0.8226808067886231	0.0	0.951061641239044	-0.8196710850808825	0.0	0.8983894587930088	-0.8181554874261171	0.0	0.9300016143450379	-0.43886377278066024	0.0	0.9525767457991405	-0.3681201185989676	0.0	0.9540785532368063	-0.41026143728890424	0.0	0.9059200783534853	-0.46144569627256343	0.0	0.9014251217853805	-0.5366878289598105	0.0	0.9525890302329487	-0.5938553549168528	0.0	0.9345154586090031	-0.4614399025586926	0.0	0.929991554497253	-0.530668417170034	0.0	0.9524350564552777	-0.5923606434740541	0.0
1	0.03347222222222222	0.9249557518422226	-0.6001213465505656	0.0	0.9204758520752727	-0.5973500230899054	0.0	0.9213908995619625	-0.7008384491958323	0.0	0.90616699085724	-0.808827198040701	0.0	0.9475053788598256	-0.8262219105522691	0.0	0.937537111306517	-0.8303651181321611	0.0	0.8984750572778125	-0.8255233222092283	0.0	0.932565639040488	-0.5968905981853999	0.0	0.9259476423015703	-0.6996577393789402	0.0	0.9102521227101112	-0.8050465105651171	0.0	0.9539994728433172	-0.8229190721549131	0.0	0.9501980084471612	-0.8206927706604827	0.0	0.8978913572733587	-0.8197814697081441	0.0	0.930122996075062	-0.43866661507979604	0.0	0.9535781717208812	-0.36962307792119636	0.0	0.9570416176921115	-0.41135225987052987	0.0	0.9068527882841743	-0.4609739624014053	0.0	0.901533870089933	-0.5358910729721911	0.0	0.9557780433426539	-0.5913562686463177	0.0	0.9349408775294635	-0.46139398212910687	0.0	0.9292262584126506	-0.531802575043921	0.0	0.9562912802991271	-0.590858054313637	0.0
2	0.06694444444444445	0.9242858714374186	-0.6002276378917211	0.0	0.9199973556951554	-0.5977515331867057	0.0	0.9216702965467496	-0.7009829491656693	0.0	0.9063497509078288	-0.809929514678856	0.0	0.948467047204798	-0.8266885329257039	0.0	0.9390786970576347	-0.8305491080666315	0.0	0.8983525403992241	-0.8267075487325043	0.0	0.9319629781451434	-0.5968942708240641	0.0	0.9261770203912022	-0.7000143273861638	0.0	0.9100838822508813	-0.8067898035019607	0.0	0.9540195138357477	-0.8231878443638272	0.0	0.9494391374175308	-0.8215523595353341	0.0	0.8973984057802868	-0.8211944361428066	0.0	0.9303134335956876	-0.4385196956065621	0.0	0.9549259953628051	-0.371212864324745	0.0	0.9601658004960656	-0.4126756607094217	0.0	0.9078882923217947	-0.4606286994435245	0.0	0.9024729723233588	-0.5352488588138199	0.0	0.959853293522206	-0.5885384939712686	0.0	0.9351039139718589	-0.46135685312131464	0.0	0.9283655924202219	-0.5328550894724094	0.0	0.9602378123336328	-0.5887870761674011	0.0
3	0.10041666666666667	0.9234003973462535	-0.6002361619978368	0.0	0.9195467903046547	-0.5981008113116286	0.0	0.9217164240583983	-0.70122238560531	0.0	0.9064558219541688	-0.8108730518925676	0.0	0.9495045490649631	-0.8270645899122671	0.0	0.9406641175411696	-0.8307693928550233	0.0	0.8979358048238593	-0.8276239501893572	0.0	0.9311261804425951	-0.59696612472547	0.0	0.9259874546525363	-0.7003416721822815	0.0	0.9099099350991808	-0.8082192876250588	0.0	0.9542163995248121	-0.8235377089613433	0.0	0.9488930636264695	-0.8222149231493848	0.0	0.8969014305384119	-0.8222749045433743	0.0	0.930643587084478	-0.438428787220939	0.0	0.9566399972743045	-0.3728847076087763	0.0	0.9633877432228588	-0.41427500257597466	0.0	0.9091365024549021	-0.46044679251345855	0.0	0.9049278820121406	-0.5348406151839858	0.0	0.9654393894573782	-0.585120092145154	0.0	0.9348337161744856	-0.4613124651929451	0.0	0.9276203019065432	-0.5337520114394099	0.0	0.9645654810901209	-0.5857509181145288	0.0
4	0.1338888888888889	0.9223045772923043	-0.6002262096891774	0.0	0.9191011658020762	-0.5984355462930272	0.0	0.9215091253952385	-0.7015278985134451	0.0	0.9065367663407216	-0.8116406521039681	0.0	0.9506802007768874	-0.8273826104521821	0.0	0.9422632419950612	-0.831042758864236	0.0	0.8973289184444595	-0.8282642095645397	0.0	0.9300960609029214	-0.597169252828421	0.0	0.9253268642211024	-0.700687751475876	0.0	0.9097193835446094	-0.8093191340821729	0.0	0.9546147370631104	-0.823987294487653	0.0	0.9486108875338601	-0.8227464969548893	0.0	0.8964025555091374	-0.823039676906029	0.0	0.9311476222604274	-0.4383279982963061	0.0	0.9583954106645599	-0.3745545391671183	0.0	0.966460655604054	-0.415975811069319	0.0	0.9106926740337754	-0.4603717264482271	0.0	0.9092411240921489	-0.534632703483716	0.0	0.9726871586058007	-0.5809018243644475	0.0	0.9340722619310188	-0.46122569718047696	0.0	0.9273719572548556	-0.5344166586015904	0.0	0.9693269796800913	-0.5815949090604697	0.0
5	0.16736111111111113	0.9210634847358968	-0.600247733563848	0.0	0.9186147526530108	-0.5987580497840931	0.0	0.9210831550328172	-0.7018177054241921	0.0	0.9066304893351533	-0.8122001945903748	0.0	0.951871590466676	-0.8276967136053299	0.0	0.9436887128166812	-0.8313883672378711	0.0	0.8967497605399194	-0.8286847145462155	0.0	0.9289593680334423	-0.597482839329235	0.0	0.9243051187684618	-0.7010338985349519	0.0	0.9095430206944337	-0.8100812565516511	0.0	0.9550755504431504	-0.8244570742859205	0.0	0.9485081648269167	-0.8231787538853167	0.0	0.8959451474405201	-0.8235700477623505	0.0	0.931792705423407	-0.43813382262755757	0.0	0.9598314339631616	-0.37607243832852816	0.0	0.9691269991995909	-0.41749642396148423	0.0	0.9126018044095717	-0.46031908349114836	0.0	0.9153799503439111	-0.534421964302039	0.0	0.9813125156283452	-0.57575656843436	0.0	0.9328072154201382	-0.46103191254080417	0.0	0.9278542223270694	-0.5346481786737718	0.0	0.9742038445249902	-0.5762785926972187	0.0
6	0.20083333333333334	0.9197705594252833	-0.6002682744129628	0.0	0.9180637459108071	-0.5990038337470147	0.0	0.9205166692842981	-0.7019780496448682	0.0	0.9067074564674553	-0.8125071011293252	0.0	0.9528165569805069	-0.8280311481347288	0.0	0.9446930758900652	-0.8317977267255752	0.0	0.8963711455473892	-0.8289507339342674	0.0	0.9277950965910873	-0.5977921525120695	0.0	0.9231342152443445	-0.7012650352622543	0.0	0.9094221821762362	-0.8104551340859941	0.0	0.9553415550058764	-0.8247920549117111	0.0	0.9484089531036903	-0.8234477552840034	0.0	0.8955811989649033	-0.8239232769969628	0.0	0.9324841668632587	-0.4378280170534922	0.0	0.9608096177853463	-0.377260798993564	0.0	0.971210369453225	-0.41860219973214463	0.0	0.9148223346927056	-0.4602243567596883	0.0	0.9230124423659831	-0.5338650049141594	0.0	0.9907761826905969	-0.5696635877929732	0.0	0.9310194564219059	-0.4606423037190916	0.0	0.9291187422099599	-0.5341362723553474	0.0	0.9788174288347296	-0.5698102876058392	0.0
7	0.23430555555555554	0.9185197219283926	-0.6002106138974225	0.0	0.9174619909866284	-0.5990937534351594	0.0	0.9199115075514578	-0.7019263424222153	0.0	0.90671613364484	-0.8125426177965579	0.0	0.9533553423822605	-0.8283288792374768	0.0	0.9451868304482131	-0.8321796423066229	0.0	0.8962534617898856	-0.8290788994809627	0.0	0.9266749465601587	-0.597963120152686	0.0	0.9220247824359659	-0.7012776911918965	0.0	0.909366871561748	-0.8104064032093992	0.0	0.9552306796847088	-0.8248657397726796	0.0	0.9481900639777873	-0.8234363061965913	0.0	0.8953344544190432	-0.8240837902363181	0.0	0.9330970391655062	-0.43747283455541586	0.0	0.9613949841092342	-0.37800379541069484	0.0	0.9726420096092264	-0.41923947695595354	0.0	0.9172020738796308	-0.46002346603360883	0.0	0.931643195524354	-0.5326059407354073	0.0	1.0004937352751824	-0.5626879209860157	0.0	0.9287521572456209	-0.459983988701699	0.0	0.9313833868094737	-0.5326619960874204	0.0	0.9833466913988433	-0.5622767089821015	0.0
